<svg width="16" height="14" viewBox="0 0 16 14" fill="none" xmlns="http://www.w3.org/2000/svg">
<path fill-rule="evenodd" clip-rule="evenodd" d="M0 3.5C0 2.67157 0.671573 2 1.5 2H14.5C15.3284 2 16 2.67157 16 3.5V12.5C16 13.3284 15.3284 14 14.5 14H1.5C0.671573 14 0 13.3284 0 12.5V3.5ZM1.5 3C1.22386 3 1 3.22386 1 3.5V12.5C1 12.7761 1.22386 13 1.5 13H14.5C14.7761 13 15 12.7761 15 12.5V3.5C15 3.22386 14.7761 3 14.5 3H1.5Z" fill="#969AA3"/>
<path fill-rule="evenodd" clip-rule="evenodd" d="M0 5.5C0 5.22386 0.223858 5 0.5 5H15.5C15.7761 5 16 5.22386 16 5.5C16 5.77614 15.7761 6 15.5 6H0.5C0.223858 6 0 5.77614 0 5.5Z" fill="#969AA3"/>
<path fill-rule="evenodd" clip-rule="evenodd" d="M4.5 0.5C4.77614 0.5 5 0.723858 5 1V3.5C5 3.77614 4.77614 4 4.5 4C4.22386 4 4 3.77614 4 3.5V1C4 0.723858 4.22386 0.5 4.5 0.5Z" fill="#969AA3"/>
<path fill-rule="evenodd" clip-rule="evenodd" d="M11.5 0.5C11.7761 0.5 12 0.723858 12 1V3.5C12 3.77614 11.7761 4 11.5 4C11.2239 4 11 3.77614 11 3.5V1C11 0.723858 11.2239 0.5 11.5 0.5Z" fill="#969AA3"/>
<path fill-rule="evenodd" clip-rule="evenodd" d="M10 8.5C10 8.22386 10.2239 8 10.5 8H12.5C12.7761 8 13 8.22386 13 8.5V10.5C13 10.7761 12.7761 11 12.5 11H10.5C10.2239 11 10 10.7761 10 10.5V8.5ZM11 9V10H12V9H11Z" fill="#969AA3"/>
</svg>
