<svg width="16" height="15" viewBox="0 0 16 15" fill="none" xmlns="http://www.w3.org/2000/svg">
<path fill-rule="evenodd" clip-rule="evenodd" d="M6.68684 1.34521C7.25724 0.311361 8.74318 0.311365 9.31358 1.34521L15.6197 12.7751C16.1713 13.7749 15.4482 14.9998 14.3064 14.9998H1.69404C0.552255 14.9998 -0.170897 13.7749 0.380671 12.7751L6.68684 1.34521ZM8.438 1.82829C8.24787 1.48367 7.75255 1.48367 7.56242 1.82828L1.25625 13.2582C1.07239 13.5915 1.31344 13.9998 1.69404 13.9998H14.3064C14.687 13.9998 14.928 13.5915 14.7442 13.2582L8.438 1.82829Z" fill="#444F5C"/>
<path d="M8.04772 9.49976H7.9527C7.69583 9.49976 7.48074 9.30511 7.45518 9.04951L7.05518 5.04951C7.02575 4.75517 7.25689 4.49976 7.5527 4.49976H8.44772C8.74353 4.49976 8.97467 4.75517 8.94523 5.04951L8.54523 9.04951C8.51967 9.30511 8.30459 9.49976 8.04772 9.49976Z" fill="#444F5C"/>
<path d="M9.00021 11.9998C9.00021 12.552 8.5525 12.9998 8.00021 12.9998C7.44793 12.9998 7.00021 12.552 7.00021 11.9998C7.00021 11.4475 7.44793 10.9998 8.00021 10.9998C8.5525 10.9998 9.00021 11.4475 9.00021 11.9998Z" fill="#444F5C"/>
</svg>
